<svg>
  <defs>
    <symbol
      id="account"
      viewBox="0 0 24 24"
      xmlns="http://www.w3.org/2000/svg"
    >
      <path
        fill="currentcolor"
        d="M6.02311 17.2923C6.87311 16.6615 7.79906 16.1635 8.80098 15.7981C9.8029 15.4327 10.8692 15.25 12 15.25C13.1308 15.25 14.1971 15.4327 15.199 15.7981C16.2009 16.1635 17.1269 16.6615 17.9769 17.2923C18.5987 16.609 19.0913 15.8179 19.4548 14.9192C19.8183 14.0205 20 13.0474 20 12C20 9.78331 19.2208 7.89581 17.6625 6.33748C16.1042 4.77914 14.2167 3.99998 12 3.99998C9.78334 3.99998 7.89584 4.77914 6.33751 6.33748C4.77917 7.89581 4.00001 9.78331 4.00001 12C4.00001 13.0474 4.18174 14.0205 4.54521 14.9192C4.90867 15.8179 5.40131 16.609 6.02311 17.2923ZM12 12.75C11.0872 12.75 10.3173 12.4365 9.69041 11.8096C9.06349 11.1827 8.75003 10.4128 8.75003 9.49998C8.75003 8.58716 9.06349 7.81729 9.69041 7.19038C10.3173 6.56346 11.0872 6.25 12 6.25C12.9128 6.25 13.6827 6.56346 14.3096 7.19038C14.9365 7.81729 15.25 8.58716 15.25 9.49998C15.25 10.4128 14.9365 11.1827 14.3096 11.8096C13.6827 12.4365 12.9128 12.75 12 12.75ZM12 21.5C10.6808 21.5 9.44328 21.2519 8.28753 20.7557C7.13176 20.2596 6.12631 19.5839 5.27118 18.7288C4.41606 17.8737 3.74043 16.8682 3.24428 15.7125C2.74811 14.5567 2.50003 13.3192 2.50003 12C2.50003 10.6807 2.74811 9.44325 3.24428 8.2875C3.74043 7.13173 4.41606 6.12628 5.27118 5.27115C6.12631 4.41603 7.13176 3.7404 8.28753 3.24425C9.44328 2.74808 10.6808 2.5 12 2.5C13.3192 2.5 14.5567 2.74808 15.7125 3.24425C16.8682 3.7404 17.8737 4.41603 18.7288 5.27115C19.5839 6.12628 20.2596 7.13173 20.7557 8.2875C21.2519 9.44325 21.5 10.6807 21.5 12C21.5 13.3192 21.2519 14.5567 20.7557 15.7125C20.2596 16.8682 19.5839 17.8737 18.7288 18.7288C17.8737 19.5839 16.8682 20.2596 15.7125 20.7557C14.5567 21.2519 13.3192 21.5 12 21.5Z"
      />
    </symbol>
    <symbol
      id="add"
      xmlns="http://www.w3.org/2000/svg"
      viewBox="0 -960 960 960"
    >
      <path
        fill="currentcolor"
        d="M450-450H200v-60h250v-250h60v250h250v60H510v250h-60v-250Z"
      />
    </symbol>
    <symbol
      id="arrow-back"
      viewBox="0 0 24 24"
      xmlns="http://www.w3.org/2000/svg"
    >
      <path
        fill="currentcolor"
        d="M12 20L4 12L12 4L13.425 5.4L7.825 11H20V13H7.825L13.425 18.6L12 20Z"
      />
    </symbol>
    <symbol
      id="clipboard"
      xmlns="http://www.w3.org/2000/svg"
      viewBox="0 -960 960 960"
    >
      <path
        fill="currentcolor"
        d="M440-280H280q-83 0-141.5-58.5T80-480q0-83 58.5-141.5T280-680h160v80H280q-50 0-85 35t-35 85q0 50 35 85t85 35h160v80ZM320-440v-80h320v80H320Zm200 160v-80h160q50 0 85-35t35-85q0-50-35-85t-85-35H520v-80h160q83 0 141.5 58.5T880-480q0 83-58.5 141.5T680-280H520Z"
      />
    </symbol>
    <symbol
      id="emergency"
      viewBox="0 0 24 24"
      xmlns="http://www.w3.org/2000/svg"
    >
      <path
        fill="currentcolor"
        d="M10.25 21v-5.95L5.1 18.025 3.35 15l5.15-3-5.15-2.975L5.1 6l5.15 2.975V3h3.5v5.975L18.9 6l1.75 3.025L15.5 12l5.15 3-1.75 3.025-5.15-2.975V21Z"
      />
    </symbol>
    <symbol
      id="like"
      viewBox="0 0 24 24"
      xmlns="http://www.w3.org/2000/svg"
    >
      <path
        fill="currentcolor"
        d="M17.7308 20.5H7.21156V8.50005L13.8462 1.90393L14.6923 2.75005C14.7961 2.8539 14.8823 2.9914 14.9509 3.16255C15.0195 3.3337 15.0538 3.49492 15.0538 3.64621V3.90005L13.9923 8.50005H20.6923C21.1679 8.50005 21.5881 8.68243 21.9529 9.04718C22.3176 9.41191 22.5 9.83211 22.5 10.3078V11.9231C22.5 12.027 22.4865 12.1391 22.4596 12.2596C22.4327 12.3801 22.4025 12.4923 22.3692 12.5962L19.5038 19.3577C19.3602 19.6782 19.1199 19.9487 18.7827 20.1692C18.4455 20.3897 18.0949 20.5 17.7308 20.5ZM8.71153 19H17.7308C17.8013 19 17.8734 18.9808 17.9471 18.9423C18.0208 18.9039 18.0769 18.8398 18.1154 18.75L21 12V10.3078C21 10.218 20.9712 10.1443 20.9135 10.0866C20.8558 10.0289 20.782 10 20.6923 10H12.0962L13.35 4.51926L8.71153 9.13851V19ZM7.21156 8.50005V10H4.00001V19H7.21156V20.5H2.50003V8.50005H7.21156Z"
      />
    </symbol>
    <symbol
      id="menu"
      xmlns="http://www.w3.org/2000/svg"
      viewBox="0 -960 960 960"
    >
      <path
        fill="currentcolor"
        d="M120-240v-80h720v80H120Zm0-200v-80h720v80H120Zm0-200v-80h720v80H120Z"
      />
    </symbol>
    <symbol
      id="more"
      xmlns="http://www.w3.org/2000/svg"
      viewBox="0 -960 960 960"
    >
      <path
        fill="currentcolor"
        d="M240-400q-33 0-56.5-23.5T160-480q0-33 23.5-56.5T240-560q33 0 56.5 23.5T320-480q0 33-23.5 56.5T240-400Zm240 0q-33 0-56.5-23.5T400-480q0-33 23.5-56.5T480-560q33 0 56.5 23.5T560-480q0 33-23.5 56.5T480-400Zm240 0q-33 0-56.5-23.5T640-480q0-33 23.5-56.5T720-560q33 0 56.5 23.5T800-480q0 33-23.5 56.5T720-400Z"
      />
    </symbol>
    <symbol
      id="search"
      viewBox="0 0 24 24"
      xmlns="http://www.w3.org/2000/svg"
    >
      <path
        fill="currentcolor"
        d="M19.6 21L13.3 14.7C12.8 15.1 12.225 15.4167 11.575 15.65C10.925 15.8833 10.2333 16 9.5 16C7.68333 16 6.146 15.371 4.888 14.113C3.62933 12.8543 3 11.3167 3 9.5C3 7.68333 3.62933 6.14567 4.888 4.887C6.146 3.629 7.68333 3 9.5 3C11.3167 3 12.8543 3.629 14.113 4.887C15.371 6.14567 16 7.68333 16 9.5C16 10.2333 15.8833 10.925 15.65 11.575C15.4167 12.225 15.1 12.8 14.7 13.3L21 19.6L19.6 21ZM9.5 14C10.75 14 11.8127 13.5627 12.688 12.688C13.5627 11.8127 14 10.75 14 9.5C14 8.25 13.5627 7.18733 12.688 6.312C11.8127 5.43733 10.75 5 9.5 5C8.25 5 7.18733 5.43733 6.312 6.312C5.43733 7.18733 5 8.25 5 9.5C5 10.75 5.43733 11.8127 6.312 12.688C7.18733 13.5627 8.25 14 9.5 14Z"
      />
    </symbol>
    <symbol
      id="send"
      xmlns="http://www.w3.org/2000/svg"
      viewBox="0 -960 960 960"
    >
      <path
        fill="currentcolor"
        d="M120-160v-640l760 320-760 320Zm60-93 544-227-544-230v168l242 62-242 60v167Zm0 0v-457 457Z"
      />
    </symbol>
    <symbol
      id="spinner"
      xmlns="http://www.w3.org/2000/svg"
      viewBox="0 -960 960 960"
    >
      <path
        fill="currentcolor"
        d="M480-80q-82 0-155-31.5t-127.5-86Q143-252 111.5-325T80-480q0-83 31.5-155.5t86-127Q252-817 325-848.5T480-880q17 0 28.5 11.5T520-840q0 17-11.5 28.5T480-800q-133 0-226.5 93.5T160-480q0 133 93.5 226.5T480-160q133 0 226.5-93.5T800-480q0-17 11.5-28.5T840-520q17 0 28.5 11.5T880-480q0 82-31.5 155t-86 127.5q-54.5 54.5-127 86T480-80Z"
      />
    </symbol>
  </defs>
</svg>